# xmcd
# 
# Track frame offsets:
#     150
#     1621
#     24253
#     51586
#     78744
#     105557
#     147081
#     172210
#     195302
#     216227
# 
# Disc length: 3552
# 
# Revision: 1
# Processed by: cddbd v1.5.2PL0 Copyright (c) Steve Scherf et al.
# Submitted via: fre:ac v1.0.31
# 
DISCID=810dde0a
DTITLE=John Mayall - Three For The Road
DYEAR=2018
DGENRE=Blues
TTITLE0=Introduction (live 2017)
TTITLE1=Big Town Playboy (live 2017)
TTITLE2=I Feel So Bad (live 2017)
TTITLE3=The Sum Of Something (live 2017)
TTITLE4=Streamline (live 2017)
TTITLE5=Tears Came Rollin' Down (live 2017)
TTITLE6=Ridin' On The L&N (live 2017)
TTITLE7=Don't Deny Me (live 2017)
TTITLE8=Lonely Feelings (live 2017)
TTITLE9=Congo Square (live 2017)
EXTD=
EXTT0=
EXTT1=
EXTT2=
EXTT3=
EXTT4=
EXTT5=
EXTT6=
EXTT7=
EXTT8=
EXTT9=
PLAYORDER=
